<svg width="1400" height="900" viewBox="0 0 1400 900" fill="none" xmlns="http://www.w3.org/2000/svg">
  <rect width="1400" height="900" fill="#020817"/>
  <rect width="1400" height="900" fill="url(#bg)"/>
  <circle cx="230" cy="170" r="260" fill="#22d3ee" opacity="0.16"/>
  <circle cx="1120" cy="710" r="300" fill="#0ea5e9" opacity="0.16"/>
  <rect x="130" y="230" width="1140" height="430" rx="58" fill="#0f172a" opacity="0.9"/>
  <rect x="210" y="340" width="560" height="230" rx="36" fill="#172033"/>
  <rect x="770" y="390" width="300" height="180" rx="28" fill="#111827"/>
  <circle cx="360" cy="615" r="62" fill="#020817"/>
  <circle cx="360" cy="615" r="30" fill="#22d3ee"/>
  <circle cx="910" cy="615" r="62" fill="#020817"/>
  <circle cx="910" cy="615" r="30" fill="#22d3ee"/>
  <path d="M250 340h420l80 90H250v-90z" fill="#22d3ee" opacity="0.28"/>
  <path d="M850 435h140v85H850v-85z" fill="#38bdf8" opacity="0.35"/>
  <rect x="185" y="205" width="270" height="78" rx="39" fill="#22d3ee"/>
  <text x="225" y="255" fill="#020817" font-family="Arial, sans-serif" font-size="34" font-weight="900">TRADE TEAM</text>
  <rect x="870" y="250" width="260" height="58" rx="29" fill="#dcfce7"/>
  <text x="905" y="289" fill="#14532d" font-family="Arial, sans-serif" font-size="26" font-weight="900">ON THE WAY</text>
  <text x="165" y="755" fill="#f8fafc" font-family="Arial, sans-serif" font-size="58" font-weight="900">Keep teams moving</text>
  <text x="165" y="810" fill="#94a3b8" font-family="Arial, sans-serif" font-size="30" font-weight="700">Assign work, update customers and track progress</text>
  <defs>
    <linearGradient id="bg" x1="0" y1="0" x2="1400" y2="900">
      <stop stop-color="#0f172a"/>
      <stop offset="0.55" stop-color="#020817"/>
      <stop offset="1" stop-color="#083344"/>
    </linearGradient>
  </defs>
</svg>
