<svg width="1400" height="900" viewBox="0 0 1400 900" fill="none" xmlns="http://www.w3.org/2000/svg">
  <rect width="1400" height="900" fill="#020817"/>
  <rect width="1400" height="900" fill="url(#bg)"/>
  <circle cx="1120" cy="120" r="280" fill="#22d3ee" opacity="0.18"/>
  <circle cx="220" cy="760" r="330" fill="#2563eb" opacity="0.18"/>
  <rect x="120" y="130" width="1160" height="640" rx="48" fill="#0f172a" opacity="0.82"/>
  <rect x="170" y="190" width="520" height="370" rx="34" fill="#111827"/>
  <rect x="725" y="190" width="500" height="120" rx="28" fill="#0b1220"/>
  <rect x="725" y="340" width="500" height="80" rx="22" fill="#0b1220"/>
  <rect x="725" y="450" width="360" height="80" rx="22" fill="#0b1220"/>
  <rect x="220" y="250" width="260" height="210" rx="28" fill="#1f2937"/>
  <path d="M293 326h116M351 268v116M288 421h144" stroke="#67e8f9" stroke-width="30" stroke-linecap="round"/>
  <path d="M500 285l70-70 42 42-70 70 42 42-66 66-42-42-82 82-42-42 82-82-42-42 66-66 42 42z" fill="#22d3ee"/>
  <circle cx="1035" cy="250" r="28" fill="#22d3ee"/>
  <rect x="790" y="235" width="190" height="30" rx="15" fill="#334155"/>
  <rect x="790" y="365" width="310" height="24" rx="12" fill="#334155"/>
  <rect x="790" y="475" width="225" height="24" rx="12" fill="#334155"/>
  <text x="170" y="675" fill="#f8fafc" font-family="Arial, sans-serif" font-size="58" font-weight="900">Job captured while you work</text>
  <text x="170" y="730" fill="#94a3b8" font-family="Arial, sans-serif" font-size="30" font-weight="700">Calls, quotes, updates and job cards in one place</text>
  <defs>
    <linearGradient id="bg" x1="0" y1="0" x2="1400" y2="900">
      <stop stop-color="#083344"/>
      <stop offset="0.48" stop-color="#020817"/>
      <stop offset="1" stop-color="#0f172a"/>
    </linearGradient>
  </defs>
</svg>
